<?xml version="1.0" encoding="utf-8"?>
<!-- Generator: Adobe Illustrator 16.0.0, SVG Export Plug-In . SVG Version: 6.00 Build 0)  -->
<!DOCTYPE svg PUBLIC "-//W3C//DTD SVG 1.1//EN" "http://www.w3.org/Graphics/SVG/1.1/DTD/svg11.dtd">
<svg version="1.1" id="图层_1" xmlns="http://www.w3.org/2000/svg" xmlns:xlink="http://www.w3.org/1999/xlink" x="0px" y="0px"
	 width="180px" height="180px" viewBox="0 0 180 180" enable-background="new 0 0 180 180" xml:space="preserve">
<path fill="#0495FE" d="M0,0c0,61.2,0,120.6,0,180c61.2,0,120.6,0,180,0c0-61.2,0-120.6,0-180C118.8,0,59.4,0,0,0z M131.272,82.848
	c-0.44,9.55-4.62,17.41-11.271,24.15c-9.58,8.239-21.049,13.16-33.689,13.129c-1.24,0-2.48,0-3.75,0c-3.02-0.109-5.73-0.469-8.69-1
	c-5.61-0.719-9.62,1.82-14.4,4.521c-2.47,1.351-2.47,1.351-4.47,1.351c0.19-0.891,0.37-1.791,0.57-2.711
	c1.25-7.43,1.25-7.43-1.56-14.09c-1.77-1.64-3.58-3.25-5.42-4.81c-5.83-5.37-8.66-13.19-9.04-20.99
	c-0.29-11.92,2.96-20.89,11.2-29.9c9.45-8.53,21.18-13.07,33.81-12.81c0.8,0,1.6-0.01,2.42-0.01
	c12.609,0.11,24.859,4.94,34.08,13.63C129.112,62.047,131.492,71.297,131.272,82.848z"/>
<path fill="#F46888" d="M137,85c3,2.74,3.88,4.75,4.27,8.859c0.23,7.451-0.229,12.451-5.27,18.141
	c-0.76,0.641-1.529,1.279-2.311,1.939C130.98,117.24,131.68,120.9,132,125c-4.63-0.77-4.63-0.77-6.66-2.029
	c-3.47-1.441-6.9-1.181-10.59-1.091c-1.12,0.011-1.12,0.011-2.26,0.021c-1.83,0.029-3.66,0.06-5.49,0.1c0-0.66,0-1.32,0-2
	c0.689-0.34,1.38-0.68,2.09-1.029C124.33,111.109,131.77,101.17,137,85z"/>
<path fill="#0B95FA" d="M90,78c2.311,0.33,4.62,0.66,7,1c0,1.32,0,2.64,0,4c0.63-0.03,1.25-0.07,1.9-0.11
	c0.82-0.02,1.629-0.05,2.479-0.08c0.81-0.03,1.62-0.07,2.46-0.1c0.71,0.09,1.42,0.19,2.16,0.29c0.99,1.48,0.99,1.48,2,3
	c-3.63,0-7.26,0-11,0c0,1.98,0,3.96,0,6c4.62,0,9.24,0,14,0c0.5,1.48,0.5,1.48,1,3c-5.279,0-10.561,0-16,0c0,3.63,0,7.26,0,11
	c-1.98,0.33-3.96,0.66-6,1c0-3.63,0-7.26,0-11c-0.84,0.029-1.69,0.07-2.55,0.109c-1.1,0.021-2.2,0.051-3.33,0.08
	c-1.63,0.051-1.63,0.051-3.3,0.101C79.89,96.2,78.96,96.1,78,96c-0.66-0.99-1.32-1.98-2-3c4.62,0,9.24,0,14,0c0-1.98,0-3.96,0-6
	c-3.3,0-6.6,0-10,0c-0.33-0.99-0.66-1.98-1-3c3.63,0,7.26,0,11,0C90,82.02,90,80.04,90,78z"/>
<path fill="#0492FB" d="M55,72c5.28,0,10.56,0,16,0c0,9.9,0,19.8,0,30c-1.65,0-3.3,0-5,0c0-8.58,0-17.16,0-26c-3.63,0-7.26,0-11,0
	C55,74.68,55,73.36,55,72z"/>
<path fill="#0995FA" d="M99,71c2.43-2.3,4.62-4.24,6.12-7.25c0.45-0.88,0.45-0.88,0.88-1.75c1.02-0.34,2.01-0.67,3-1
	c-2.04-1.7-4.02-3.35-6-5c-1.83,2.21-1.83,2.21-4.43,2.41c-1.521,0.11-1.521,0.11-3.021,0.22c-1.1,0.09-2.18,0.17-3.26,0.26
	c-1.72,0.12-1.72,0.12-3.41,0.23c-3.24,0.25-6.47,0.5-9.71,0.73C78.43,59.9,77.72,59.95,77,60c0.34,0.68,0.67,1.34,1,2
	c0.87,0.21,1.72,0.42,2.56,0.62c1.23,0.19,1.23,0.19,2.44,0.38c0,0.68,0,1.34,0,2c2.25,2.94,1.917,3.417,5.917,7.167
	C84.836,74.208,78.96,77.02,75,79c0,0.68,0,1.34,0,2c3,0,3,0,5.52-0.84c0.063-0.243,12.063-5.826,12.063-5.826S103.68,80.92,109,80
	c2.439-2.5,2.439-2.5,4-5C108.25,73.85,103.62,72.62,99,71z M92,69c-1.17-0.78-2.34-1.58-3.5-2.38c-0.65-0.44-1.3-0.88-1.97-1.33
	c-0.5-0.43-1.01-0.85-1.53-1.29c0-0.66,0-1.32,0-2c4.29,0,8.58,0,13,0C95,67,95,67,92,69z"/>
<path fill="#0D97F8" d="M65,58c2.31,0,4.62,0,7,0c0,2.31,0,4.62,0,7c-2.31,0-4.62,0-7,0C65,62.69,65,60.38,65,58z"/>
<path fill="#D87199" d="M114.125,119.938c1.37,0.29,1.37,0.29,2.76,0.59c0.7,0.16,1.4,0.311,2.12,0.471c0,0.33,0,0.66,0,1
	c-3.97,0-7.93,0-12,0c0-0.66,0-1.32,0-2C109.725,118.638,111.186,119.297,114.125,119.938z"/>
<path fill="#1D9BF7" d="M104,92c2.311,0,4.62,0,7,0c0.33,0.99,0.66,1.98,1,3c-1.98,0-3.96,0-6,0c0-0.66,0-1.32,0-2
	C105.34,92.67,104.68,92.34,104,92z"/>
</svg>
