<?xml version="1.0" encoding="utf-8"?>
<!-- Generator: Adobe Illustrator 16.0.0, SVG Export Plug-In . SVG Version: 6.00 Build 0)  -->
<!DOCTYPE svg PUBLIC "-//W3C//DTD SVG 1.1//EN" "http://www.w3.org/Graphics/SVG/1.1/DTD/svg11.dtd">
<svg version="1.1" id="图层_1" xmlns="http://www.w3.org/2000/svg" xmlns:xlink="http://www.w3.org/1999/xlink" x="0px" y="0px"
	 width="34.016px" height="34.016px" viewBox="23.492 -1.508 34.016 34.016" enable-background="new 23.492 -1.508 34.016 34.016"
	 xml:space="preserve">
<path fill="#FF4906" d="M47.212,15.826c2.471,0,4.474,1.992,4.474,4.448v3.533c0,2.456-2.003,4.448-4.474,4.448h-6.58
	c-1.93,0.003-3.644-1.231-4.253-3.063l-3.92,1.953c-1.07,0.535-2.373,0.105-2.914-0.962c-0.151-0.3-0.23-0.632-0.23-0.968v-6.336
	c0-1.192,0.972-2.158,2.171-2.158c0.341,0,0.677,0.079,0.981,0.232l3.903,1.964c0.599-1.846,2.321-3.095,4.262-3.092L47.212,15.826
	L47.212,15.826z M47.184,18.116h-6.485c-1.218-0.004-2.214,0.97-2.237,2.188v3.438c0.003,1.218,0.982,2.208,2.2,2.225h6.484
	c1.218,0.003,2.213-0.97,2.237-2.187v-3.438C49.379,19.123,48.4,18.134,47.184,18.116z M32.209,19.496
	c-0.322-0.001-0.584,0.256-0.591,0.578v3.982c0.002,0.328,0.271,0.591,0.598,0.589c0.088-0.001,0.174-0.021,0.253-0.06l0.009-0.005
	l3.679-1.865v-1.32l-3.683-1.836C32.393,19.518,32.302,19.496,32.209,19.496z M37.671,2.744c2.188-0.003,4.208,1.173,5.283,3.078
	c0.962-0.888,2.224-1.38,3.533-1.378c2.871,0,5.198,2.314,5.198,5.168s-2.327,5.168-5.198,5.168c-1.659,0.002-3.22-0.787-4.2-2.124
	c-1.152,1.35-2.84,2.127-4.616,2.124c-3.343,0-6.053-2.695-6.053-6.019S34.328,2.744,37.671,2.744z M37.671,5.164
	c-1.999,0-3.619,1.611-3.619,3.598c0,1.987,1.62,3.598,3.619,3.598c1.999,0,3.619-1.611,3.619-3.598
	C41.29,6.775,39.67,5.164,37.671,5.164z M46.487,6.865c-1.521-0.004-2.758,1.226-2.763,2.747l0,0
	c0.005,1.522,1.241,2.752,2.763,2.748l0,0c1.521,0.005,2.76-1.225,2.764-2.747c0,0,0,0,0-0.001
	C49.247,8.091,48.01,6.861,46.487,6.865C46.488,6.865,46.488,6.865,46.487,6.865z"/>
</svg>
