<?xml version="1.0" encoding="utf-8"?>
<!-- Generator: Adobe Illustrator 16.0.0, SVG Export Plug-In . SVG Version: 6.00 Build 0)  -->
<!DOCTYPE svg PUBLIC "-//W3C//DTD SVG 1.1//EN" "http://www.w3.org/Graphics/SVG/1.1/DTD/svg11.dtd">
<svg version="1.1" id="图层_1" xmlns="http://www.w3.org/2000/svg" xmlns:xlink="http://www.w3.org/1999/xlink" x="0px" y="0px"
	 width="362.83px" height="362.83px" viewBox="0 0 362.83 362.83" enable-background="new 0 0 362.83 362.83" xml:space="preserve">
<g>
	<path fill="#0047FF" d="M177.576,184.478c5.221,0,9.452,4.24,9.452,9.463c0,5.222-4.231,9.463-9.452,9.463
		c-5.23,0-9.463-4.241-9.463-9.463C168.113,188.718,172.345,184.478,177.576,184.478z"/>
	<polygon fill="#0047FF" points="221.378,148.158 207.114,154.9 192.851,148.158 207.114,141.416 	"/>
	<polygon fill="#0047FF" points="249.905,134.675 235.642,141.416 221.378,134.675 235.642,127.933 	"/>
	<polygon fill="#0047FF" points="207.114,114.46 221.378,121.201 207.114,127.943 192.851,121.201 	"/>
	<polygon fill="#0047FF" points="192.851,121.201 178.586,127.943 164.313,121.201 178.586,114.46 	"/>
	<polygon fill="#0047FF" points="164.322,134.675 150.059,141.416 135.785,134.675 150.049,127.933 	"/>
	<path fill="#0047FF" d="M303.288,211.024l-13.254-6.65c-34.789,6.9-67.166,22.766-93.953,46.012
		c27.137-26.697,60.816-45.793,97.654-55.365l-27.766-7.321c-40.832,10.053-73.75,40.159-87.385,79.932
		c-13.644-39.771-46.562-69.879-87.383-79.932l-27.776,7.321c36.85,9.572,70.527,28.668,97.655,55.365
		c-26.776-23.246-59.166-39.111-93.954-46.012l-14.914,7.48c43.651,3.512,84.883,21.496,117.141,51.112
		c-2.33-1.909-4.69-3.762-7.103-5.551c-28.957-21.646-63.347-34.979-99.445-38.49L52.754,229.72
		c38.279-1.979,76.189,8.332,108.188,29.447c-32.298-16.613-68.559-23.977-104.787-21.275l-10.963,11.404
		c45.812-10.555,93.955-2.053,133.395,23.545c39.432-25.598,87.573-34.1,133.385-23.545l-10.963-11.404
		c-36.22-2.701-72.488,4.662-104.787,21.275c32-21.115,69.909-31.428,108.188-29.447l-10.053-10.793
		c-36.101,3.51-70.479,16.844-99.445,38.49c-2.412,1.789-4.771,3.641-7.104,5.551c31.709-29.107,72.1-47.002,114.971-50.922
		L303.288,211.024z M362.836,0v362.835H0V0H362.836z M310.931,163.513l-61.025-28.838l14.264-6.731l-14.264-6.742l-14.264,6.731
		l-14.265-6.731l14.265-6.741l-14.265-6.742l14.265-6.741l-14.265-6.742l-14.264,6.742l14.264,6.741l-14.264,6.742l-14.264-6.742
		l-14.266,6.742l-14.264-6.742l-14.264,6.742l14.254,6.741l-14.265,6.731l-14.264-6.731l-14.264,6.742l14.264,6.731l-14.264,6.741
		l-14.265-6.741l-63.757,30.138c48.593,7.042,94.805,25.547,134.835,53.974C218.407,191.71,263.487,172.915,310.931,163.513z"/>
</g>
</svg>
