<?xml version="1.0" encoding="utf-8"?>
<!-- Generator: Adobe Illustrator 16.0.0, SVG Export Plug-In . SVG Version: 6.00 Build 0)  -->
<!DOCTYPE svg PUBLIC "-//W3C//DTD SVG 1.1//EN" "http://www.w3.org/Graphics/SVG/1.1/DTD/svg11.dtd">
<svg version="1.1" id="图层_1" xmlns="http://www.w3.org/2000/svg" xmlns:xlink="http://www.w3.org/1999/xlink" x="0px" y="0px"
	 width="362.83px" height="362.83px" viewBox="0 0 362.83 362.83" enable-background="new 0 0 362.83 362.83" xml:space="preserve">
<rect x="0" fill="#25D765" width="362.837" height="362.835"/>
<g>
	<path fill="#201B1B" d="M89.997,125.203c7.12-4.655,46.52-13.025,94.894-7.236c48.583,4.341,90.805,22.482,94.271,30.185
		c5.582,12.404-5.79,22.534-16.745,18.606c-21.895-7.85-34.525-17.78-66.364-21.708c-14.473-2.481-36.581-3.154-54.786-2.688
		c-16.126,0.414-24.396,1.86-40.314,6.822C86.59,153.66,73.256,136.147,89.997,125.203z"/>
	<path fill="#201B1B" d="M107.157,191.979c13.464-4.681,47.343-6.822,76.906-3.721c26.192,2.747,47.491,12.979,58.921,20.674
		c10.13,6.821,24.188-4.757,14.471-16.333c-3.583-4.266-37.098-25.342-75.252-28.323c-13.232-1.033-68.092-4.525-85.384,8.271
		C86.483,180.195,92.892,196.94,107.157,191.979z"/>
	<path fill="#201B1B" d="M102.815,216.166c10.336-7.028,52.925-8.894,75.459-5.581c18.481,2.716,61.426,16.371,64.71,22.327
		c3.31,5.996,0.208,18.194-12.404,12.404c-12.637-5.804-29.563-15.508-61.194-19.436c-24.426-3.033-53.517,3.976-60.781,5.792
		C98.679,234.153,93.78,222.309,102.815,216.166z"/>
</g>
</svg>
